<svg xmlns="http://www.w3.org/2000/svg" width="105.04" height="14.473" viewBox="0 0 105.04 14.473">
  <g id="Group_489" data-name="Group 489" transform="translate(2356.164 1613.238)">
    <path id="Path_18" data-name="Path 18" d="M390.49,21.414a8.49,8.49,0,0,1-3.936.82,6.435,6.435,0,0,1-4.883-1.924,7.01,7.01,0,0,1-1.836-5.049,7.352,7.352,0,0,1,2.065-5.43,7.066,7.066,0,0,1,5.22-2.07,8.554,8.554,0,0,1,3.369.576v2.3a6.012,6.012,0,0,0-3.125-.84,4.9,4.9,0,0,0-3.687,1.455,5.345,5.345,0,0,0-1.411,3.887,5.1,5.1,0,0,0,1.318,3.687,4.588,4.588,0,0,0,3.467,1.372,6.207,6.207,0,0,0,3.438-.937ZM401.613,22h-2.266V20.418h-.039a3.26,3.26,0,0,1-3.066,1.816q-3.545,0-3.545-4.258V12h2.266v5.742q0,2.7,2.08,2.7A2.1,2.1,0,0,0,398.7,19.7a2.844,2.844,0,0,0,.649-1.943V12h2.266Zm8.223-.107a3.926,3.926,0,0,1-1.748.332q-2.91,0-2.91-2.793V13.777h-1.67V12h1.67V9.686l2.266-.645V12h2.393v1.777h-2.393v5a1.97,1.97,0,0,0,.322,1.27,1.338,1.338,0,0,0,1.074.381,1.558,1.558,0,0,0,1-.332Zm10.3-4.277h-6.816a2.881,2.881,0,0,0,.854,2.139,3.179,3.179,0,0,0,2.241.752,4.942,4.942,0,0,0,2.939-.957v1.826a6.716,6.716,0,0,1-3.613.859,4.473,4.473,0,0,1-3.462-1.362,5.449,5.449,0,0,1-1.255-3.833,5.328,5.328,0,0,1,1.382-3.8,4.52,4.52,0,0,1,3.433-1.47,3.941,3.941,0,0,1,3.174,1.318,5.474,5.474,0,0,1,1.123,3.662Zm-2.187-1.6a2.919,2.919,0,0,0-.576-1.9,1.925,1.925,0,0,0-1.562-.679,2.2,2.2,0,0,0-1.655.713,3.257,3.257,0,0,0-.835,1.865Zm12.412.908V22h-2.314V8H432.3a5.627,5.627,0,0,1,3.74,1.123,3.916,3.916,0,0,1,1.328,3.164,4.371,4.371,0,0,1-1.387,3.34,5.265,5.265,0,0,1-3.75,1.3Zm0-7.012v5.117h1.5a3.326,3.326,0,0,0,2.275-.693,2.475,2.475,0,0,0,.781-1.953q0-2.471-2.871-2.471ZM446.584,22h-2.2V20.438h-.039a3.308,3.308,0,0,1-3.037,1.8,3.2,3.2,0,0,1-2.31-.8,2.8,2.8,0,0,1-.835-2.119q0-2.832,3.262-3.3l2.969-.42q0-2.139-2.031-2.139a4.825,4.825,0,0,0-3.223,1.23V12.7a7.028,7.028,0,0,1,3.652-.937q3.789,0,3.789,3.73ZM444.4,17.088l-2.1.293a3.328,3.328,0,0,0-1.47.474,1.384,1.384,0,0,0-.493,1.216,1.331,1.331,0,0,0,.454,1.04,1.758,1.758,0,0,0,1.216.405,2.243,2.243,0,0,0,1.714-.728,2.579,2.579,0,0,0,.679-1.831ZM462.795,12l-2.949,10h-2.373l-1.816-6.777a4.291,4.291,0,0,1-.137-.879h-.039a4.008,4.008,0,0,1-.176.859L453.332,22h-2.324l-2.939-10h2.344l1.816,7.207a4.27,4.27,0,0,1,.117.859h.068a4.642,4.642,0,0,1,.156-.879L454.592,12h2.129l1.8,7.236a5.061,5.061,0,0,1,.127.859h.068a4.56,4.56,0,0,1,.146-.859L460.637,12Z" transform="translate(-2736 -1621)" fill="#2a2626"/>
    <g id="Icon_ionic-md-paw" data-name="Icon ionic-md-paw" transform="translate(-2268.965 -1616.613)">
      <path id="Path_19" data-name="Path 19" d="M28.772,10.791a1.411,1.411,0,0,0-.8-.765,1.528,1.528,0,0,0-.515-.09,2.262,2.262,0,0,0-1.91,1.447c-.48,1.075-.2,2.122.647,2.445a1.563,1.563,0,0,0,.543.1A2.288,2.288,0,0,0,28.678,12.6,2.169,2.169,0,0,0,28.772,10.791Z" transform="translate(-11.086 -3.315)" fill="#2a2626"/>
      <path id="Path_20" data-name="Path 20" d="M6.758,11.375a2.258,2.258,0,0,0-1.91-1.447,1.513,1.513,0,0,0-.515.09,1.421,1.421,0,0,0-.8.765,2.134,2.134,0,0,0,.094,1.805,2.288,2.288,0,0,0,1.944,1.325,1.5,1.5,0,0,0,.543-.1C6.959,13.5,7.238,12.45,6.758,11.375Z" transform="translate(0 -3.311)" fill="#2a2626"/>
      <path id="Path_21" data-name="Path 21" d="M11.429,7.945a1.4,1.4,0,0,0,.209-.007,1.66,1.66,0,0,0,1.064-.5,2.353,2.353,0,0,0,.5-1.976,2.162,2.162,0,0,0-1.906-2.09s-.143,0-.216.007a1.814,1.814,0,0,0-1.165.553,2.269,2.269,0,0,0-.595,1.871A2.383,2.383,0,0,0,11.429,7.945Z" transform="translate(-2.994)" fill="#2a2626"/>
      <path id="Path_22" data-name="Path 22" d="M13.072,15.75c-2.41,0-4.824,3.377-4.824,6.132a2.158,2.158,0,0,0,.817,1.753,2.421,2.421,0,0,0,1.583.466,1.912,1.912,0,0,0,.977-.212,2.9,2.9,0,0,1,1.388-.362h.122a2.937,2.937,0,0,1,1.388.362,1.948,1.948,0,0,0,.977.212,2.408,2.408,0,0,0,1.583-.466,2.168,2.168,0,0,0,.817-1.753C17.9,19.124,15.482,15.75,13.072,15.75Z" transform="translate(-2.464 -6.253)" fill="#2a2626"/>
      <path id="Path_23" data-name="Path 23" d="M20.353,7.942c.07.007.139.007.209.007A2.383,2.383,0,0,0,22.677,5.81a2.258,2.258,0,0,0-.595-1.871A1.776,1.776,0,0,0,20.931,3.4c-.073-.007-.233-.007-.233-.007a2.158,2.158,0,0,0-1.906,2.083,2.35,2.35,0,0,0,.5,1.976A1.708,1.708,0,0,0,20.353,7.942Z" transform="translate(-7.777 -0.007)" fill="#2a2626"/>
    </g>
  </g>
</svg>
